<mxfile host="app.diagrams.net" modified="2021-04-18T22:13:24.594Z" agent="5.0 (X11)" etag="Q_AvvhxfJhkB3VXDqoNs" version="14.6.0" type="github">
  <diagram name="Page-1" id="c7558073-3199-34d8-9f00-42111426c3f3">
    <mxGraphModel dx="1957" dy="648" grid="1" gridSize="10" guides="1" tooltips="1" connect="1" arrows="1" fold="1" page="1" pageScale="1" pageWidth="826" pageHeight="1169" background="#ffffff" math="0" shadow="0">
      <root>
        <mxCell id="0" />
        <mxCell id="1" parent="0" />
        <mxCell id="14" value="Center of Polygon" style="whiteSpace=wrap;align=center;verticalAlign=middle;fontStyle=1;strokeWidth=3;fillColor=#FFFFCC" parent="1" vertex="1">
          <mxGeometry x="-60" y="870" width="90" height="50" as="geometry" />
        </mxCell>
        <mxCell id="KJrBYfXFeu-7VClHqmHX-96" value="&lt;div align=&quot;center&quot;&gt;&lt;font style=&quot;font-size: 21px&quot;&gt;&lt;br&gt;&lt;/font&gt;&lt;/div&gt;&lt;div align=&quot;center&quot;&gt;&lt;font style=&quot;font-size: 21px&quot;&gt;C&lt;/font&gt;&lt;/div&gt;" style="verticalAlign=middle;align=center;overflow=fill;fontSize=12;fontFamily=Helvetica;html=1;rounded=1;fontStyle=1;strokeWidth=3;fillColor=#E6FFCC" vertex="1" parent="1">
          <mxGeometry x="231.5" y="855" width="79" height="80" as="geometry" />
        </mxCell>
        <mxCell id="KJrBYfXFeu-7VClHqmHX-99" value="" style="edgeStyle=elbowEdgeStyle;elbow=vertical;strokeColor=#990000;strokeWidth=2;entryX=0.009;entryY=0.536;entryDx=0;entryDy=0;entryPerimeter=0;exitX=1;exitY=0.5;exitDx=0;exitDy=0;" edge="1" parent="1" source="14">
          <mxGeometry width="100" height="100" relative="1" as="geometry">
            <mxPoint x="40" y="895" as="sourcePoint" />
            <mxPoint x="136.99" y="894.8199999999998" as="targetPoint" />
            <Array as="points">
              <mxPoint x="59.999999999999986" y="894.58" />
            </Array>
          </mxGeometry>
        </mxCell>
        <mxCell id="KJrBYfXFeu-7VClHqmHX-100" value="" style="edgeStyle=elbowEdgeStyle;elbow=vertical;strokeColor=#990000;strokeWidth=2;entryX=0;entryY=0.5;entryDx=0;entryDy=0;" edge="1" parent="1" target="KJrBYfXFeu-7VClHqmHX-103">
          <mxGeometry width="100" height="100" relative="1" as="geometry">
            <mxPoint x="311.5" y="894.58" as="sourcePoint" />
            <mxPoint x="448.49" y="894.8199999999998" as="targetPoint" />
            <Array as="points">
              <mxPoint x="371.5" y="894.58" />
            </Array>
          </mxGeometry>
        </mxCell>
        <mxCell id="KJrBYfXFeu-7VClHqmHX-101" value="" style="edgeStyle=elbowEdgeStyle;elbow=vertical;strokeColor=#990000;strokeWidth=2;exitX=1;exitY=0.5;exitDx=0;exitDy=0;startArrow=none;" edge="1" parent="1" source="KJrBYfXFeu-7VClHqmHX-123">
          <mxGeometry width="100" height="100" relative="1" as="geometry">
            <mxPoint x="523.01" y="894.58" as="sourcePoint" />
            <mxPoint x="660" y="895" as="targetPoint" />
            <Array as="points">
              <mxPoint x="583.01" y="894.58" />
            </Array>
          </mxGeometry>
        </mxCell>
        <mxCell id="KJrBYfXFeu-7VClHqmHX-103" value="&lt;br&gt;&lt;div&gt;&lt;font style=&quot;font-size: 19px&quot;&gt;Hip control&lt;/font&gt;&lt;/div&gt;" style="verticalAlign=middle;align=center;overflow=fill;fontSize=12;fontFamily=Helvetica;html=1;rounded=1;fontStyle=1;strokeWidth=3;fillColor=#E6FFCC" vertex="1" parent="1">
          <mxGeometry x="399.5" y="870" width="135.5" height="50" as="geometry" />
        </mxCell>
        <mxCell id="KJrBYfXFeu-7VClHqmHX-106" value="&lt;b&gt;Desired ZMP&lt;/b&gt;" style="text;html=1;align=center;verticalAlign=middle;resizable=0;points=[];autosize=1;strokeWidth=2;" vertex="1" parent="1">
          <mxGeometry x="30" y="870" width="90" height="20" as="geometry" />
        </mxCell>
        <mxCell id="KJrBYfXFeu-7VClHqmHX-107" value="" style="shape=orEllipse;perimeter=ellipsePerimeter;whiteSpace=wrap;html=1;backgroundOutline=1;strokeWidth=2;fillColor=#FF91C8;" vertex="1" parent="1">
          <mxGeometry x="136" y="877.5" width="34" height="35" as="geometry" />
        </mxCell>
        <mxCell id="KJrBYfXFeu-7VClHqmHX-109" value="" style="edgeStyle=elbowEdgeStyle;elbow=vertical;strokeColor=#990000;strokeWidth=2;entryX=0;entryY=0.5;entryDx=0;entryDy=0;" edge="1" parent="1" target="KJrBYfXFeu-7VClHqmHX-96">
          <mxGeometry width="100" height="100" relative="1" as="geometry">
            <mxPoint x="170" y="894.5799999999999" as="sourcePoint" />
            <mxPoint x="228.5" y="895" as="targetPoint" />
            <Array as="points">
              <mxPoint x="240" y="895" />
            </Array>
          </mxGeometry>
        </mxCell>
        <mxCell id="KJrBYfXFeu-7VClHqmHX-111" value="&lt;div style=&quot;font-size: 13px&quot;&gt;&lt;b&gt;&lt;font style=&quot;font-size: 13px&quot;&gt;ZMP&lt;/font&gt;&lt;/b&gt;&lt;/div&gt;" style="text;html=1;align=center;verticalAlign=middle;resizable=0;points=[];autosize=1;strokeColor=none;strokeWidth=6;" vertex="1" parent="1">
          <mxGeometry x="185" y="870" width="40" height="20" as="geometry" />
        </mxCell>
        <mxCell id="KJrBYfXFeu-7VClHqmHX-112" value="" style="triangle;whiteSpace=wrap;html=1;strokeWidth=1;fillColor=#FAFFFD;rotation=-90;" vertex="1" parent="1">
          <mxGeometry x="180" y="875" width="10" height="10" as="geometry" />
        </mxCell>
        <mxCell id="KJrBYfXFeu-7VClHqmHX-113" value="&lt;b&gt;CoM&lt;/b&gt;" style="text;html=1;align=center;verticalAlign=middle;resizable=0;points=[];autosize=1;strokeColor=none;strokeWidth=1;" vertex="1" parent="1">
          <mxGeometry x="341" y="870" width="40" height="20" as="geometry" />
        </mxCell>
        <mxCell id="KJrBYfXFeu-7VClHqmHX-114" value="" style="triangle;whiteSpace=wrap;html=1;strokeWidth=1;fillColor=#FAFFFD;rotation=-90;" vertex="1" parent="1">
          <mxGeometry x="336" y="875" width="10" height="10" as="geometry" />
        </mxCell>
        <mxCell id="KJrBYfXFeu-7VClHqmHX-117" value="" style="strokeColor=#990000;strokeWidth=2;edgeStyle=elbowEdgeStyle;startArrow=none;startFill=0;rounded=1;exitX=0.5;exitY=1;exitDx=0;exitDy=0;entryX=1.022;entryY=0.514;entryDx=0;entryDy=0;entryPerimeter=0;" edge="1" parent="1" source="KJrBYfXFeu-7VClHqmHX-123" target="KJrBYfXFeu-7VClHqmHX-121">
          <mxGeometry width="100" height="100" relative="1" as="geometry">
            <mxPoint x="660" y="900" as="sourcePoint" />
            <mxPoint x="550" y="1040" as="targetPoint" />
            <Array as="points">
              <mxPoint x="636" y="990" />
              <mxPoint x="636" y="970" />
              <mxPoint x="705" y="980" />
            </Array>
          </mxGeometry>
        </mxCell>
        <mxCell id="KJrBYfXFeu-7VClHqmHX-120" value="&lt;div align=&quot;center&quot;&gt;&lt;font style=&quot;font-size: 21px&quot;&gt;&lt;br&gt;&lt;/font&gt;&lt;/div&gt;&lt;div align=&quot;center&quot;&gt;&lt;font style=&quot;font-size: 21px&quot;&gt;C&lt;sup&gt;-1&lt;/sup&gt;&lt;/font&gt;&lt;/div&gt;" style="verticalAlign=middle;align=center;overflow=fill;fontSize=12;fontFamily=Helvetica;html=1;rounded=1;fontStyle=1;strokeWidth=3;fillColor=#E6FFCC" vertex="1" parent="1">
          <mxGeometry x="231.5" y="965" width="79" height="80" as="geometry" />
        </mxCell>
        <mxCell id="KJrBYfXFeu-7VClHqmHX-121" value="&lt;div&gt;&lt;font style=&quot;font-size: 14px&quot;&gt;&lt;br&gt;&lt;/font&gt;&lt;/div&gt;&lt;div&gt;&lt;font style=&quot;font-size: 14px&quot;&gt;Forward kinematics&lt;/font&gt;&lt;/div&gt;" style="verticalAlign=middle;align=center;overflow=fill;fontSize=12;fontFamily=Helvetica;html=1;rounded=1;fontStyle=1;strokeWidth=3;fillColor=#E6FFCC" vertex="1" parent="1">
          <mxGeometry x="394" y="980" width="146.5" height="50" as="geometry" />
        </mxCell>
        <mxCell id="KJrBYfXFeu-7VClHqmHX-123" value="Hip position" style="whiteSpace=wrap;align=center;verticalAlign=middle;fontStyle=1;strokeWidth=3;fillColor=#FFFFCC" vertex="1" parent="1">
          <mxGeometry x="591" y="870" width="90" height="50" as="geometry" />
        </mxCell>
        <mxCell id="KJrBYfXFeu-7VClHqmHX-126" value="" style="edgeStyle=elbowEdgeStyle;elbow=vertical;strokeColor=#990000;strokeWidth=2;entryX=0;entryY=0.5;entryDx=0;entryDy=0;exitX=1;exitY=0.5;exitDx=0;exitDy=0;" edge="1" parent="1" source="KJrBYfXFeu-7VClHqmHX-103" target="KJrBYfXFeu-7VClHqmHX-123">
          <mxGeometry width="100" height="100" relative="1" as="geometry">
            <mxPoint x="545" y="859.9999999999999" as="sourcePoint" />
            <mxPoint x="633" y="860.42" as="targetPoint" />
            <Array as="points">
              <mxPoint x="560" y="895" />
            </Array>
          </mxGeometry>
        </mxCell>
        <mxCell id="KJrBYfXFeu-7VClHqmHX-127" value="" style="edgeStyle=elbowEdgeStyle;elbow=vertical;strokeColor=#990000;strokeWidth=2;entryX=1;entryY=0.5;entryDx=0;entryDy=0;exitX=0;exitY=0.5;exitDx=0;exitDy=0;" edge="1" parent="1" source="KJrBYfXFeu-7VClHqmHX-121" target="KJrBYfXFeu-7VClHqmHX-120">
          <mxGeometry width="100" height="100" relative="1" as="geometry">
            <mxPoint x="321.5" y="904.5799999999999" as="sourcePoint" />
            <mxPoint x="409.5" y="905" as="targetPoint" />
            <Array as="points">
              <mxPoint x="350" y="1005" />
            </Array>
          </mxGeometry>
        </mxCell>
        <mxCell id="KJrBYfXFeu-7VClHqmHX-128" value="&lt;b&gt;CoM&lt;/b&gt;" style="text;html=1;align=center;verticalAlign=middle;resizable=0;points=[];autosize=1;strokeColor=none;strokeWidth=1;" vertex="1" parent="1">
          <mxGeometry x="336" y="980" width="40" height="20" as="geometry" />
        </mxCell>
        <mxCell id="KJrBYfXFeu-7VClHqmHX-129" value="&lt;div style=&quot;font-size: 13px&quot;&gt;&lt;b&gt;&lt;font style=&quot;font-size: 13px&quot;&gt;ZMP&lt;/font&gt;&lt;/b&gt;&lt;/div&gt;" style="text;html=1;align=center;verticalAlign=middle;resizable=0;points=[];autosize=1;strokeColor=none;strokeWidth=1;" vertex="1" parent="1">
          <mxGeometry x="180" y="980" width="40" height="20" as="geometry" />
        </mxCell>
        <mxCell id="KJrBYfXFeu-7VClHqmHX-130" value="" style="edgeStyle=elbowEdgeStyle;elbow=vertical;strokeColor=#990000;strokeWidth=2;entryX=0.5;entryY=1;entryDx=0;entryDy=0;exitX=0;exitY=0.5;exitDx=0;exitDy=0;" edge="1" parent="1" source="KJrBYfXFeu-7VClHqmHX-120" target="KJrBYfXFeu-7VClHqmHX-107">
          <mxGeometry width="100" height="100" relative="1" as="geometry">
            <mxPoint x="185" y="1020" as="sourcePoint" />
            <mxPoint x="101.5" y="1020" as="targetPoint" />
            <Array as="points">
              <mxPoint x="190" y="1005" />
            </Array>
          </mxGeometry>
        </mxCell>
      </root>
    </mxGraphModel>
  </diagram>
</mxfile>
